<svg width="95" height="125" viewBox="0 0 95 125" fill="none" xmlns="http://www.w3.org/2000/svg">
<path opacity="0.1" d="M50.0188 124.055C74.8612 124.055 95 121.463 95 118.266C95 115.069 74.8612 112.477 50.0188 112.477C25.1763 112.477 5.03754 115.069 5.03754 118.266C5.03754 121.463 25.1763 124.055 50.0188 124.055Z" fill="#5C76FF"/>
<path d="M51.0863 6.7373H48.7668V58.9563H51.0863V6.7373Z" fill="#535461"/>
<path d="M65.452 58.8593L65.3077 61.2119L65.1005 64.541L65.0154 65.9244L64.812 69.2536L64.7232 70.637L64.516 73.9661L62.178 111.722C62.0764 113.346 61.3595 114.871 60.1733 115.986C58.9871 117.1 57.4206 117.721 55.7928 117.722H43.6365C42.0091 117.721 40.4431 117.1 39.2575 115.985C38.0719 114.871 37.3558 113.346 37.2551 111.722L34.9281 73.9402L34.721 70.6111L34.6359 69.2277L34.4287 65.8986L34.3436 64.5151L34.1364 61.186L33.9885 58.8334C33.9628 58.3806 34.0299 57.9274 34.1856 57.5014C34.3414 57.0755 34.5826 56.6859 34.8943 56.3565C35.2061 56.0271 35.5819 55.7649 35.9987 55.5859C36.4154 55.4069 36.8644 55.3149 37.3179 55.3157H62.1817C62.6336 55.3196 63.0798 55.416 63.493 55.599C63.9061 55.7821 64.2773 56.0478 64.5838 56.3799C64.8902 56.7119 65.1254 57.1033 65.2747 57.5297C65.424 57.9562 65.4843 58.4087 65.452 58.8593Z" fill="#3F3D56"/>
<path d="M65.5177 61.1497L65.3106 64.4677H34.5388L34.3317 61.1497H65.5177Z" fill="#9D9CB5"/>
<path d="M65.2256 65.8511L65.0221 69.1728H34.8312L34.624 65.8511H65.2256Z" fill="#9D9CB5"/>
<path d="M64.9334 70.5601L64.7299 73.8781H35.1235L34.9164 70.5601H64.9334Z" fill="#9D9CB5"/>
<path d="M30.7914 26.3086C44.298 36.0814 49.9359 51.3658 49.9359 51.3658C49.9359 51.3658 33.6585 50.8072 20.1482 41.0344C6.63794 31.2616 1.01112 15.981 1.01112 15.981C1.01112 15.981 17.2812 16.5358 30.7914 26.3086Z" fill="url(#paint0_linear)"/>
<path d="M1 15.981C1 15.981 17.8989 25.358 23.3186 33.1222C28.7382 40.8864 49.9359 51.3658 49.9359 51.3658" stroke="#535461" stroke-width="2" stroke-miterlimit="10"/>
<path d="M39.5109 6.62249C46.8616 11.938 49.9359 20.2571 49.9359 20.2571C49.9359 20.2571 41.0758 19.9537 33.7213 14.6383C26.3669 9.32278 23.3001 1 23.3001 1C23.3001 1 32.1565 1.30331 39.5109 6.62249Z" fill="url(#paint1_linear)"/>
<path d="M23.3001 1C23.3001 1 32.4968 6.10463 35.4452 10.3289C38.3937 14.5532 49.9359 20.2571 49.9359 20.2571" stroke="#535461" stroke-width="2" stroke-miterlimit="10"/>
<path d="M60.6087 19.8354C52.1629 29.1163 50.3761 41.2454 50.3761 41.2454C50.3761 41.2454 62.2845 38.3231 70.7229 29.0386C79.1612 19.7541 80.9555 7.62866 80.9555 7.62866C80.9555 7.62866 69.0544 10.5546 60.6087 19.8354Z" fill="url(#paint2_linear)"/>
<path d="M80.9629 7.63232C80.9629 7.63232 69.9608 17.1462 67.1641 23.7009C64.3673 30.2555 50.3761 41.2453 50.3761 41.2453" stroke="#535461" stroke-width="2" stroke-miterlimit="10"/>
<defs>
<linearGradient id="paint0_linear" x1="25.4735" y1="-0.103055" x2="66.6159" y2="18.7445" gradientUnits="userSpaceOnUse">
<stop stop-color="#2196F3"/>
<stop offset="1" stop-color="#5C76FF"/>
</linearGradient>
<linearGradient id="paint1_linear" x1="36.618" y1="-7.75321" x2="59.0139" y2="2.51037" gradientUnits="userSpaceOnUse">
<stop stop-color="#2196F3"/>
<stop offset="1" stop-color="#5C76FF"/>
</linearGradient>
<linearGradient id="paint2_linear" x1="65.6658" y1="-7.65166" x2="94.1868" y2="0.944279" gradientUnits="userSpaceOnUse">
<stop stop-color="#2196F3"/>
<stop offset="1" stop-color="#5C76FF"/>
</linearGradient>
</defs>
</svg>
