<svg width="1176" height="91" viewBox="0 0 1176 91" fill="none" xmlns="http://www.w3.org/2000/svg">
<path d="M10.1 26.9825H7.522V5.28965C7.522 3.78155 7.163 3.02751 6.447 3.02751H3.653C2.937 3.02751 2.579 3.78155 2.579 5.28965V76.4598C2.579 79.0128 3.152 80.2882 4.299 80.2882H5.802C6.949 80.2882 7.522 79.0117 7.522 76.4598V56.2169H10.1V77.9097C10.1 81.3514 9.223 83.0717 7.468 83.0717H2.633C0.878 83.0717 0 81.3514 0 77.9097V5.28965C0 1.92552 1.236 0.24292 3.707 0.24292H6.393C8.865 0.24292 10.1 1.92552 10.1 5.28965V26.9825ZM35.55 83.0728H32.97L31.143 55.5199H25.395L23.245 83.0717H20.345L27.436 0.24292H29.37L35.549 83.0717L35.55 83.0728ZM30.93 52.7353L28.512 16.3084L25.664 52.7353H30.929H30.93ZM51.92 83.0706L48.374 37.7697V83.0706H45.794V0.24292H48.374L53.37 67.4694L58.313 0.24292H60.892V83.0717H58.313V37.7707L54.767 83.0717H51.92V83.0706ZM77.53 0.24292C80.002 0.24292 81.237 1.92552 81.237 5.28965V77.9097C81.237 81.3514 80.36 83.0717 78.605 83.0717H73.769C72.014 83.0717 71.137 81.3514 71.137 77.9097V5.28965C71.137 1.92552 72.373 0.24292 74.844 0.24292H77.53ZM76.94 80.2882C78.085 80.2882 78.658 79.0117 78.658 76.4598V5.28857C78.658 3.78048 78.3 3.02643 77.584 3.02643H74.79C74.074 3.02643 73.716 3.78048 73.716 5.28857V76.4598C73.716 79.0128 74.289 80.2882 75.435 80.2882H76.939H76.94ZM94.544 0.24292H104.859V83.0717H102.28V3.02751H97.123V77.9097C97.123 81.3514 96.245 83.0717 94.49 83.0717H91.481V80.2882H92.824C93.971 80.2882 94.544 79.0117 94.544 76.4598V0.24292ZM117.683 83.0717H115.104V0.24292H117.683V83.0717ZM127.929 0.24292H130.508V40.5553L135.665 0.24292H138.245L132.765 41.3094L138.245 83.0728H135.665L130.508 43.3399V83.0717H127.928V0.24292H127.929ZM156.978 78.3158C156.691 81.4871 155.814 83.0717 154.345 83.0717H151.283V80.2882H152.68C153.719 80.2882 154.256 79.476 154.292 77.8515L148.489 0.24292H151.069L155.742 67.0051L160.792 0.24292H163.694L156.978 78.3158ZM176.518 43.3388V80.2871H180.816C181.389 80.2871 181.676 79.6494 181.676 78.374V45.6581C181.676 44.1123 181.156 43.3388 180.117 43.3388H176.517H176.518ZM181.675 37.6555V4.12949C181.675 3.39483 181.496 3.02751 181.138 3.02751H176.518V40.5553H180.118C181.156 40.5553 181.675 39.5891 181.675 37.6555ZM173.94 0.24292H182.428C183.646 0.24292 184.255 1.07453 184.255 2.73666V38.0616C184.255 40.1492 183.7 41.3482 182.59 41.6573L183.45 42.0634C183.986 42.3338 184.255 43.3205 184.255 45.0214V80.4616C184.255 82.2024 183.825 83.0717 182.965 83.0717H173.94V0.24292ZM209.704 83.0717H207.126L205.299 55.5199H199.55L197.4 83.0717H194.5L201.59 0.24292H203.525L209.703 83.0717H209.704ZM205.084 52.7364L202.666 16.3095L199.819 52.7364H205.084ZM219.95 0.24292H222.528V40.5553H227.686V0.24292H230.265V83.0717H227.686V43.3399H222.528V83.0717H219.95V0.24292ZM240.51 0.24292H243.089V40.5553H248.246V0.24292H250.826V83.0717H248.246V43.3399H243.089V83.0717H240.509V0.24292H240.51ZM265.207 55.5199C264.168 55.5199 263.219 55.1623 262.36 54.447C261.5 53.7318 261.07 52.3303 261.07 50.2416V2.73666C261.07 1.07453 261.68 0.24292 262.897 0.24292H271.386V83.0717H268.806V55.5199L263.649 83.0717H261.07L266.282 55.5199H265.207ZM263.649 49.8355C263.649 51.7691 264.169 52.7364 265.207 52.7364H268.807V3.02751H264.187C263.828 3.02751 263.649 3.39376 263.649 4.12949V49.8355ZM314.548 83.0717L311 37.7707V83.0717H308.421V0.24292H311L315.997 67.4694L320.94 0.24292H323.52V83.0717H320.94V37.7707L317.394 83.0717H314.547H314.548ZM340.157 0.24292C342.629 0.24292 343.865 1.92552 343.865 5.28965V77.9097C343.865 81.3514 342.987 83.0717 341.232 83.0717H336.397C334.642 83.0717 333.764 81.3514 333.764 77.9097V5.28965C333.764 1.92552 335 0.24292 337.471 0.24292H340.158H340.157ZM339.567 80.2882C340.713 80.2882 341.286 79.0117 341.286 76.4598V5.28857C341.286 3.78048 340.928 3.02643 340.211 3.02643H337.418C336.701 3.02643 336.343 3.78048 336.343 5.28857V76.4598C336.343 79.0128 336.916 80.2882 338.063 80.2882H339.567ZM361.847 0.24292H364.425V40.5553L369.583 0.24292H372.162L366.682 41.3094L372.162 83.0728H369.582L364.425 43.3399V83.0717H361.846V43.3399L356.688 83.0717H354.11L359.59 41.3094L354.11 0.24292H356.688L361.846 40.5553V0.24292H361.847ZM391.11 0.24292V3.02751H384.985V40.5553H391.11V43.3399H384.985V80.2882H391.11V83.0717H382.407V0.24292H391.11ZM434.326 40.5553C435.365 40.5553 436.314 40.913 437.174 41.6282C438.034 42.3435 438.463 43.746 438.463 45.8337V80.578C438.463 82.2412 437.854 83.0717 436.636 83.0717H428.148V0.24292H436.851V3.02751H430.727V40.5553H434.327H434.326ZM435.884 46.2398C435.884 44.3062 435.364 43.3399 434.326 43.3399H430.726V80.2882H435.346C435.706 80.2882 435.884 79.9209 435.884 79.1862V46.2398ZM457.197 78.3158C456.91 81.4871 456.033 83.0717 454.564 83.0717H451.502V80.2882H452.899C453.937 80.2882 454.475 79.476 454.51 77.8515L448.708 0.24292H451.287L455.961 67.0051L461.011 0.24292H463.912L457.197 78.3158ZM480.819 3.02751V83.0717H478.241V3.02751H474.157V0.24292H484.419V3.02751H480.819ZM505.947 83.0717H503.367V28.0263L497.243 83.0717H494.664V0.24292H497.243V61.437L503.368 0.24292H505.947V83.0717ZM550.72 0.24292H553.298V80.2882H558.456V0.24292H561.035V83.0717H542.983V0.24292H545.562V80.2882H550.72V0.24292ZM571.28 0.24292H573.859V40.5553L579.018 0.24292H581.596L576.116 41.3094L581.596 83.0728H579.018L573.86 43.3399V83.0717H571.281V0.24292H571.28ZM594.42 83.0717H591.84V0.24292H594.42V83.0717ZM607.243 83.0717V90.7285H604.664V80.2882H606.007C607.154 80.2882 607.727 79.0117 607.727 76.4598V0.24292H618.042V80.2882H619.332V90.7285H616.752V83.0717H607.243ZM610.091 80.2882H615.463V3.02751H610.305V77.9097C610.305 78.8383 610.234 79.63 610.091 80.2882ZM632.64 0.24292H642.955V83.0717H640.376V3.02751H635.219V77.9097C635.219 81.3514 634.341 83.0717 632.586 83.0717H629.577V80.2882H630.921C632.067 80.2882 632.64 79.0117 632.64 76.4598V0.24292ZM664.483 83.0717H661.903V28.0263L655.779 83.0717H653.2V0.24292H655.779V61.437L661.904 0.24292H664.483V83.0717ZM677.306 43.3399V80.2882H681.604C682.178 80.2882 682.464 79.6494 682.464 78.374V45.6581C682.464 44.1123 681.944 43.3388 680.906 43.3388H677.306V43.3399ZM682.464 37.6555V4.12949C682.464 3.39483 682.285 3.02751 681.927 3.02751H677.307V40.5553H680.907C681.945 40.5553 682.464 39.5891 682.464 37.6555ZM674.728 0.24292H683.216C684.434 0.24292 685.043 1.07453 685.043 2.73666V38.0616C685.043 40.1492 684.488 41.3482 683.377 41.6573L684.237 42.0634C684.774 42.3338 685.043 43.3205 685.043 45.0214V80.4616C685.043 82.2024 684.613 83.0717 683.753 83.0717H674.728V0.24292ZM706.57 83.0717H703.992V28.0263L697.867 83.0717H695.288V0.24292H697.867V61.437L703.992 0.24292H706.57V83.0717ZM722.94 83.0717L719.394 37.7707V83.0717H716.815V0.24292H719.395L724.391 67.4694L729.334 0.24292H731.912V83.0717H729.334V37.7707L725.788 83.0717H722.94ZM771.529 83.0717V90.7285H768.949V80.2882H770.293C771.439 80.2882 772.013 79.0117 772.013 76.4598V0.24292H782.328V80.2882H783.618V90.7285H781.038V83.0717H771.528H771.529ZM774.376 80.2882H779.749V3.02751H774.591V77.9097C774.591 78.8383 774.52 79.63 774.376 80.2882ZM796.924 0.24292H807.24V83.0717H804.661V3.02751H799.503V77.9097C799.503 81.3514 798.626 83.0717 796.871 83.0717H793.862V80.2882H795.205C796.351 80.2882 796.925 79.0117 796.925 76.4598V0.24292H796.924ZM821.622 55.5199C820.583 55.5199 819.634 55.1623 818.774 54.447C817.914 53.7318 817.484 52.3303 817.484 50.2416V2.73666C817.484 1.07453 818.094 0.24292 819.312 0.24292H827.8V83.0717H825.221V55.5199L820.064 83.0717H817.484L822.696 55.5199H821.622ZM820.064 49.8355C820.064 51.7691 820.583 52.7364 821.622 52.7364H825.222V3.02751H820.6C820.242 3.02751 820.063 3.39376 820.063 4.12949V49.8355H820.064ZM867.417 43.3399V80.2882H871.715C872.288 80.2882 872.575 79.6494 872.575 78.374V45.6581C872.575 44.1123 872.055 43.3388 871.016 43.3388H867.416L867.417 43.3399ZM872.574 37.6555V4.12949C872.574 3.39483 872.395 3.02751 872.037 3.02751H867.417V40.5553H871.017C872.055 40.5553 872.574 39.5891 872.574 37.6555ZM864.838 0.24292H873.326C874.544 0.24292 875.153 1.07453 875.153 2.73666V38.0616C875.153 40.1492 874.598 41.3482 873.488 41.6573L874.348 42.0634C874.885 42.3338 875.153 43.3205 875.153 45.0214V80.4616C875.153 82.2024 874.723 83.0717 873.863 83.0717H864.838V0.24292ZM900.603 83.0717H898.023L896.197 55.5199H890.448L888.3 83.0717H885.4L892.49 0.24292H894.424L900.603 83.0717ZM895.983 52.7364L893.564 16.3095L890.717 52.7364H895.982H895.983ZM918.583 0.24292H921.162V80.2882H926.32V0.24292H928.898V83.0717H910.847V0.24292H913.425V80.2882H918.583V0.24292ZM945.537 0.24292C948.008 0.24292 949.244 1.92552 949.244 5.28965V77.9097C949.244 81.3514 948.366 83.0717 946.611 83.0717H941.776C940.021 83.0717 939.143 81.3514 939.143 77.9097V5.28965C939.143 1.92552 940.379 0.24292 942.851 0.24292H945.537ZM944.946 80.2882C946.092 80.2882 946.666 79.0117 946.666 76.4598V5.28857C946.666 3.78048 946.306 3.02643 945.591 3.02643H942.797C942.08 3.02643 941.722 3.78048 941.722 5.28857V76.4598C941.722 79.0128 942.295 80.2882 943.442 80.2882H944.946ZM962.068 83.0717H959.488V0.24292H968.193V3.02751H962.068V83.0717ZM984.832 0.24292C987.303 0.24292 988.539 1.92552 988.539 5.28965V77.9097C988.539 81.3514 987.661 83.0717 985.906 83.0717H981.071C979.316 83.0717 978.439 81.3514 978.439 77.9097V5.28965C978.439 1.92552 979.674 0.24292 982.146 0.24292H984.832ZM984.241 80.2882C985.387 80.2882 985.961 79.0117 985.961 76.4598V5.28857C985.961 3.78048 985.602 3.02643 984.886 3.02643H982.092C981.376 3.02643 981.017 3.78048 981.017 5.28857V76.4598C981.017 79.0128 981.59 80.2882 982.737 80.2882H984.241ZM1031.76 43.3399H1026.97V40.5553H1031.76C1032.79 40.5553 1033.31 39.5891 1033.31 37.6555V5.28965C1033.31 3.78155 1032.95 3.02751 1032.24 3.02751H1029.23C1028.51 3.02751 1028.16 3.78155 1028.16 5.28965V26.9825H1025.58V5.28965C1025.58 1.92552 1026.81 0.24292 1029.28 0.24292H1032.18C1034.66 0.24292 1035.89 1.92552 1035.89 5.28965V38.0616C1035.89 40.1492 1035.34 41.3482 1034.23 41.6573L1035.09 42.0634C1035.62 42.3338 1035.89 43.3205 1035.89 45.0214V77.9097C1035.89 81.3514 1035.01 83.0717 1033.26 83.0717H1028.21C1026.45 83.0717 1025.58 81.3514 1025.58 77.9097V56.2169H1028.16V76.4598C1028.16 79.0128 1028.73 80.2882 1029.88 80.2882H1031.59C1032.74 80.2882 1033.31 79.0117 1033.31 76.4598V45.6602C1033.31 44.1133 1032.79 43.3399 1031.76 43.3399ZM1048.71 83.0717V90.7285H1046.14V80.2882H1047.48C1048.63 80.2882 1049.2 79.0117 1049.2 76.4598V0.24292H1059.52V80.2882H1060.81V90.7285H1058.22V83.0717H1048.71ZM1051.56 80.2882H1056.94V3.02751H1051.78V77.9097C1051.78 78.8383 1051.71 79.63 1051.56 80.2882ZM1077.44 0.24292C1079.91 0.24292 1081.15 1.92552 1081.15 5.28965V77.9097C1081.15 81.3514 1080.27 83.0717 1078.52 83.0717H1073.68C1071.93 83.0717 1071.05 81.3514 1071.05 77.9097V5.28965C1071.05 1.92552 1072.29 0.24292 1074.76 0.24292H1077.44H1077.44ZM1076.85 80.2882C1078 80.2882 1078.57 79.0117 1078.57 76.4598V5.28857C1078.57 3.78048 1078.21 3.02643 1077.5 3.02643H1074.7C1073.99 3.02643 1073.63 3.78048 1073.63 5.28857V76.4598C1073.63 79.0128 1074.2 80.2882 1075.35 80.2882H1076.85ZM1097.57 43.3399H1093.97V83.0717H1091.4V0.24292H1099.88C1101.1 0.24292 1101.71 1.07453 1101.71 2.73666V38.0616C1101.71 40.1492 1101.28 41.5518 1100.42 42.267C1099.56 42.9823 1098.61 43.3399 1097.57 43.3399ZM1099.13 37.6555V4.12949C1099.13 3.39483 1098.95 3.02751 1098.59 3.02751H1093.97V40.5553H1097.57C1098.61 40.5553 1099.13 39.5891 1099.13 37.6555ZM1118.35 0.24292C1120.82 0.24292 1122.06 1.92552 1122.06 5.28965V77.9097C1122.06 81.3514 1121.18 83.0717 1119.42 83.0717H1114.59C1112.83 83.0717 1111.95 81.3514 1111.95 77.9097V5.28965C1111.95 1.92552 1113.19 0.24292 1115.66 0.24292H1118.35ZM1117.76 80.2882C1118.9 80.2882 1119.48 79.0117 1119.48 76.4598V5.28857C1119.48 3.78048 1119.12 3.02643 1118.4 3.02643H1115.61C1114.89 3.02643 1114.53 3.78048 1114.53 5.28857V76.4598C1114.53 79.0128 1115.11 80.2882 1116.25 80.2882H1117.76H1117.76ZM1134.88 43.3399V80.2882H1139.18C1139.75 80.2882 1140.04 79.6494 1140.04 78.374V45.6581C1140.04 44.1123 1139.52 43.3388 1138.48 43.3388H1134.88V43.3399ZM1140.04 37.6555V4.12949C1140.04 3.39483 1139.86 3.02751 1139.5 3.02751H1134.88V40.5553H1138.48C1139.52 40.5553 1140.04 39.5891 1140.04 37.6555ZM1132.3 0.24292H1140.79C1142.01 0.24292 1142.62 1.07453 1142.62 2.73666V38.0616C1142.62 40.1492 1142.06 41.3482 1140.95 41.6573L1141.81 42.0634C1142.35 42.3338 1142.62 43.3205 1142.62 45.0214V80.4616C1142.62 82.2024 1142.19 83.0717 1141.33 83.0717H1132.3V0.24292ZM1176 0.24292V83.0717H1173.42V55.5199L1168.26 83.0717H1165.69L1170.9 55.5199H1169.82C1168.78 55.5199 1167.83 55.1623 1166.97 54.447C1166.11 53.7318 1165.68 52.3303 1165.68 50.2416V2.73666C1165.68 1.07453 1166.29 0.24292 1167.51 0.24292H1176V0.24292ZM1173.42 3.02751H1168.8C1168.44 3.02751 1168.26 3.39376 1168.26 4.12949V49.8355C1168.26 51.7691 1168.78 52.7364 1169.82 52.7364H1173.42V3.02751H1173.42ZM1155.44 0.47452V9.81393C1155.08 12.1332 1154.22 13.3515 1152.86 13.4678V11.7852C1153.9 11.5913 1154.42 10.4904 1154.42 8.47926V8.13132H1152.86V0.47452H1155.44Z" fill="#7D7D7D"/>
</svg>
